<svg width="500" height="500" viewBox="0 0 500 500" fill="none" xmlns="http://www.w3.org/2000/svg">
<path d="M131.693 270.046C132.761 269.63 133.969 269.296 135.318 269.046C136.677 268.786 138.511 268.65 140.818 268.65C143.12 268.65 145.516 269.275 148.006 270.525C158.448 265.416 165.578 257.979 169.401 248.213C170.787 244.755 171.485 241.255 171.485 237.713C171.485 234.171 170.511 231.161 168.568 228.671C167.511 229.27 166.453 229.937 165.401 230.671L162.089 233.025C156.099 237.541 151.037 242.005 146.901 246.421C139.901 253.827 132.469 262.812 124.61 273.38C116.761 283.952 108.776 292.713 100.651 299.671C92.5264 306.619 84.7816 311.609 77.4222 314.65C73.4066 316.223 68.3389 317.005 62.2139 317.005C58.2139 317.005 54.766 316.036 51.8597 314.088C49.016 312.161 47.5889 309.812 47.5889 307.046C47.5889 304.145 49.016 302.307 51.8597 301.525C52.5993 301.348 53.3337 301.255 54.068 301.255C54.8076 301.255 55.5576 301.499 56.318 301.984C57.0837 302.458 57.4639 303.213 57.4639 304.255C57.4639 305.296 57.0837 306.15 56.318 306.817C55.5576 307.484 54.5212 307.817 53.2139 307.817C51.8962 307.817 50.917 307.588 50.2764 307.13V307.525C50.2764 309.791 51.3962 311.64 53.6305 313.067C55.8701 314.484 58.4326 315.192 61.318 315.192C64.2191 315.192 66.5785 314.979 68.4014 314.546C70.2191 314.104 72.2139 313.265 74.3805 312.025C76.5472 310.775 78.9743 309.025 81.6722 306.775C84.3649 304.525 87.5524 301.583 91.2347 297.942L104.006 284.546L121.068 265.9C137.219 247.567 152.552 234.562 167.068 226.88C161.761 221.577 153.011 218.921 140.818 218.921C126.594 218.921 112.552 224.15 98.693 234.609C92.0107 239.682 86.4847 245.041 82.1097 250.692C77.693 256.541 75.4847 261.609 75.4847 265.9C75.4847 269.807 77.4118 272.312 81.2764 273.421C82.3857 273.744 83.9274 273.9 85.9014 273.9C87.8857 273.9 90.4066 273.374 93.4639 272.317C96.5316 271.265 99.6149 269.77 102.714 267.838C105.823 265.895 108.849 263.577 111.797 260.88C114.756 258.187 117.427 255.208 119.818 251.942C125.11 244.9 128.287 237.536 129.36 229.838C129.62 228.369 129.969 227.63 130.401 227.63C130.844 227.63 131.068 228.14 131.068 229.15C131.068 237.624 128.631 245.588 123.756 253.046C119.339 259.77 113.422 265.202 106.006 269.338C98.7816 273.395 91.5316 275.421 84.2555 275.421C79.4639 275.421 76.1722 273.624 74.3805 270.025C73.7243 268.833 73.4014 266.88 73.4014 264.171C73.4014 261.452 74.2972 258.171 76.0889 254.338C77.891 250.494 80.3701 246.786 83.5264 243.213C86.6774 239.645 90.4118 236.296 94.7347 233.171C99.068 230.036 103.745 227.291 108.776 224.942C119.594 219.916 130.87 217.4 142.61 217.4C154.344 217.4 163.599 219.984 170.381 225.15C177.282 221.833 183.032 220.171 187.631 220.171C189.157 220.171 189.922 220.4 189.922 220.859C189.922 221.098 189.506 221.27 188.672 221.38C187.839 221.494 186.641 221.734 185.089 222.109C180.532 223.083 176.224 224.624 172.172 226.734C176.49 230.874 178.651 235.984 178.651 242.067C178.651 247.958 175.891 253.874 170.381 259.817C165.266 265.291 158.912 269.567 151.318 272.65C154.995 275.932 156.839 280.562 156.839 286.546C156.839 291.661 154.927 296.604 151.11 301.38C145.401 308.577 137.547 313.39 127.547 315.817C124.323 316.609 121.328 317.005 118.568 317.005C115.818 317.005 113.698 316.765 112.214 316.275C110.74 315.791 109.568 315.182 108.693 314.442C107.078 313.109 106.276 311.536 106.276 309.713C106.276 307.895 106.761 306.057 107.735 304.192C108.703 302.317 110.032 300.463 111.714 298.63C113.391 296.786 115.381 295.015 117.672 293.317C119.974 291.609 122.443 290.109 125.068 288.817C130.912 285.916 136.578 284.463 142.068 284.463C143.026 284.463 143.506 284.765 143.506 285.359C143.506 285.958 142.547 286.255 140.631 286.255C138.724 286.255 136.495 286.604 133.943 287.296C131.386 287.994 128.886 288.937 126.443 290.13C124.011 291.327 121.714 292.708 119.547 294.275C117.381 295.848 115.49 297.479 113.881 299.171C110.339 302.869 108.568 306.275 108.568 309.4C108.568 313.182 111.719 315.067 118.026 315.067C122.443 315.067 127.094 313.411 131.985 310.088C139.802 304.838 145.141 297.52 148.006 288.13C148.922 285.005 149.381 282.119 149.381 279.463C149.381 276.812 149.032 274.937 148.339 273.838C143.599 275.452 139.61 276.255 136.36 276.255C133.11 276.255 130.943 275.911 129.86 275.213C128.787 274.52 128.256 273.854 128.256 273.213C128.256 272.577 128.558 271.994 129.172 271.463C129.797 270.921 130.636 270.452 131.693 270.046ZM145.86 271.484C144.427 270.65 142.756 270.234 140.839 270.234C138.933 270.234 137.511 270.307 136.568 270.442C135.62 270.583 134.782 270.77 134.047 271.005C132.532 271.421 131.776 271.88 131.776 272.38C131.776 273.494 133.11 274.046 135.776 274.046C138.443 274.046 141.802 273.192 145.86 271.484Z" fill="#241E4E"/>
<path d="M185.669 312.025C185.669 314.14 187.034 315.192 189.752 315.192C192.471 315.192 195.482 314.494 198.773 313.088C202.065 311.687 205.294 309.859 208.461 307.609C214.586 303.333 220.221 297.994 225.377 291.588C233.487 282.327 238.346 276.729 239.961 274.796C239.961 274.796 241.2 273.255 243.69 270.171C245.482 270.494 246.794 270.65 247.627 270.65C249.971 270.65 251.742 270.562 252.94 270.38L228.898 300.005L216.69 316.38L206.19 330.046C218.065 324.338 227.18 318.65 233.544 312.984C237.68 309.307 241.57 305.255 245.211 300.838L255.148 288.817L256.607 289.984L247.898 300.275C242.742 306.359 238.44 310.9 234.982 313.9C231.534 316.885 228.383 319.343 225.523 321.275C220.091 324.869 212.841 328.807 203.773 333.088C195.2 343.807 188.747 351.265 184.398 355.463C180.055 359.656 176.617 362.635 174.086 364.4C171.544 366.176 169.081 367.572 166.69 368.588C162.638 370.338 157.825 371.213 152.252 371.213C149.45 371.213 147.581 370.218 146.648 368.234C146.388 367.692 146.252 366.817 146.252 365.609C146.252 364.411 147.023 362.744 148.565 360.609C150.107 358.468 152.742 356.088 156.461 353.463C163.919 348.213 176.81 341.718 195.127 333.984L223.252 298.359L222.482 298.067C218.107 302.765 213.638 306.494 209.086 309.255C200.57 314.421 193.758 317.005 188.648 317.005C186.065 317.005 184.138 316.484 182.857 315.442C181.565 314.4 180.919 313.14 180.919 311.65C180.919 310.15 181.06 308.791 181.336 307.567C181.601 306.348 182.148 304.89 182.982 303.192C184.69 299.916 187.935 294.916 192.711 288.192C194.836 285.567 197.388 282.744 200.377 279.713L209.982 269.963L213.232 270.317C213.966 270.359 215.107 270.38 216.648 270.38C218.19 270.38 219.586 270.312 220.836 270.171C216.737 273.854 213.674 276.848 211.648 279.15L206.732 284.671C196.565 295.952 190.836 302.536 189.544 304.421C186.961 308.119 185.669 310.65 185.669 312.025ZM192.711 336.963C169.56 346.848 155.638 354.718 150.94 360.567C149.289 362.65 148.461 364.656 148.461 366.588C148.461 367.088 148.773 367.671 149.398 368.338C150.013 369.005 151.331 369.338 153.357 369.338C155.388 369.338 157.638 368.885 160.107 367.984C162.565 367.093 165.31 365.473 168.336 363.13C173.909 358.713 182.034 349.989 192.711 336.963Z" fill="#241E4E"/>
<path d="M324.621 318.171C323.913 318.171 323.559 317.911 323.559 317.4C323.559 316.9 323.694 316.536 323.975 316.296C326.184 314.603 328.189 311.338 329.996 306.505C330.673 304.52 331.434 302.213 332.267 299.588L335.163 290.067C340.647 272.208 349.236 253.307 360.934 233.359L342.413 256.213L329.163 271.63L320.934 280.817C304.267 299.041 291.257 310.317 281.913 314.65C278.507 316.223 275.512 317.005 272.913 317.005C270.319 317.005 268.142 316.765 266.392 316.275C264.642 315.791 263.194 315.109 262.038 314.234C259.778 312.525 258.642 310.338 258.642 307.671C258.642 305.838 259.179 304.525 260.246 303.734C261.804 302.499 263.179 301.88 264.371 301.88C267.194 301.88 268.6 302.937 268.6 305.046C268.6 305.963 268.215 306.77 267.434 307.463C266.642 308.161 265.637 308.505 264.413 308.505C263.194 308.505 262.194 308.275 261.413 307.817V308.234C261.413 310.249 262.304 311.9 264.08 313.192C265.845 314.484 268.199 315.13 271.142 315.13C274.09 315.13 277.048 314.484 280.038 313.192C283.038 311.9 286.543 309.765 290.559 306.775C299.168 300.432 309.501 290.484 321.559 276.942L340.684 254.984C356.392 236.192 365.231 225.327 367.205 222.38C368.038 221.369 368.632 220.859 368.996 220.859C369.371 220.859 369.559 221.025 369.559 221.359C369.559 221.682 369.465 222.02 369.288 222.38L368.309 224.171C366.611 226.994 365.314 229.999 364.413 233.192C363.522 236.39 362.835 238.921 362.35 240.796C361.861 242.661 361.293 244.671 360.642 246.838L358.434 254.15C355.168 264.473 351.21 274.067 346.559 282.942C346.559 282.942 342.548 290.15 334.538 304.567L355.475 279.713L364.663 269.213L374.184 258.713L383.517 248.755C401.1 230.536 415.876 219.484 427.85 215.609C431.903 214.275 436.126 213.603 440.517 213.588C444.918 213.562 448.35 214.619 450.809 216.755C453.267 218.895 454.522 221.921 454.58 225.838C454.663 230.213 452.455 235.098 447.955 240.484C443.246 245.999 437.35 250.463 430.267 253.88C428.611 254.661 427.423 255.046 426.705 255.046C425.996 255.046 425.642 254.874 425.642 254.525C425.642 254.182 426.522 253.65 428.288 252.942C430.064 252.234 432.34 250.937 435.121 249.046C437.913 247.161 440.439 245.041 442.705 242.692C447.715 237.307 450.225 232.077 450.225 227.005C450.225 223.369 449.246 220.546 447.288 218.546C445.33 216.546 442.496 215.546 438.788 215.546C435.08 215.546 431.059 216.353 426.725 217.963C422.403 219.577 417.689 222.15 412.58 225.692C402.496 232.65 390.319 243.937 376.059 259.546L359.955 277.567L346.559 293.317L328.392 314.921C326.6 317.088 325.34 318.171 324.621 318.171ZM311.475 237.442C310.653 238.4 309.778 238.88 308.85 238.88C307.934 238.88 307.126 238.598 306.434 238.025C305.751 237.458 305.413 236.749 305.413 235.9C305.413 235.041 305.694 234.291 306.267 233.65C306.835 232.999 307.606 232.671 308.58 232.671C309.548 232.671 310.439 232.895 311.246 233.338C312.048 233.77 312.772 234.4 313.413 235.234C314.798 237.025 315.496 239.291 315.496 242.025C315.496 244.765 314.871 247.275 313.621 249.567C312.382 251.848 310.751 253.791 308.725 255.4C304.392 258.848 299.392 260.567 293.725 260.567C287.975 260.567 283.231 258.984 279.496 255.817C275.361 252.359 273.288 247.588 273.288 241.505C273.288 234.978 276.163 229.525 281.913 225.15C287.715 220.734 295.205 218.525 304.371 218.525C309.84 218.525 313.996 218.952 316.83 219.796C319.663 220.645 322.111 221.499 324.184 222.359C326.251 223.208 328.33 224.14 330.413 225.15L337.455 228.4C341.038 229.874 343.96 230.609 346.225 230.609C350.6 230.609 354.486 229.088 357.892 226.046C358.111 225.869 358.376 225.775 358.684 225.775C358.986 225.775 359.142 225.937 359.142 226.255C359.142 226.619 358.814 227.166 358.163 227.9C355.455 230.624 351.356 232.562 345.871 233.713C344.397 233.994 343.038 234.13 341.788 234.13C340.548 234.13 339.08 233.994 337.371 233.713C335.673 233.437 333.955 233.067 332.205 232.609C328.647 231.598 325.434 230.265 322.559 228.609C319.684 226.942 317.215 225.64 315.163 224.692C313.121 223.749 311.293 223.025 309.684 222.525C307.017 221.65 304.022 221.213 300.705 221.213C297.382 221.213 294.194 221.734 291.142 222.775C288.085 223.807 285.376 225.244 283.017 227.088C278.001 231.13 275.496 236.077 275.496 241.921C275.496 246.853 277.132 250.911 280.413 254.088C283.715 257.312 288.064 258.921 293.455 258.921C298.564 258.921 303.048 257.421 306.913 254.421C311.205 251.202 313.35 247.13 313.35 242.213C313.35 240.369 312.725 238.775 311.475 237.442Z" fill="#241E4E"/>
<path d="M198.06 416.226V394.934H205.81C207.544 394.934 209.065 395.221 210.372 395.788C211.674 396.346 212.768 397.101 213.643 398.059C214.528 399.018 215.19 400.143 215.622 401.434C216.065 402.726 216.289 404.101 216.289 405.559C216.289 407.174 216.044 408.637 215.56 409.955C215.07 411.262 214.362 412.382 213.435 413.309C212.518 414.242 211.414 414.966 210.122 415.476C208.841 415.976 207.403 416.226 205.81 416.226H198.06ZM212.122 405.559C212.122 404.533 211.981 403.596 211.705 402.747C211.424 401.887 211.018 401.143 210.476 400.518C209.935 399.893 209.268 399.413 208.476 399.08C207.695 398.736 206.81 398.559 205.81 398.559H202.205V412.601H205.81C206.82 412.601 207.726 412.424 208.518 412.059C209.31 411.7 209.966 411.205 210.497 410.58C211.023 409.945 211.424 409.2 211.705 408.351C211.981 407.492 212.122 406.559 212.122 405.559Z" fill="#D8B10A"/>
<path d="M243.601 412.601V416.226H228.81V394.934H243.33V398.559H232.955V403.684H241.914V407.059H232.955V412.601H243.601Z" fill="#D8B10A"/>
<path d="M254.843 405.434C254.843 404.132 255.072 402.846 255.53 401.58C255.999 400.32 256.687 399.184 257.593 398.184C258.494 397.184 259.593 396.382 260.884 395.768C262.187 395.143 263.666 394.83 265.322 394.83C267.28 394.83 268.973 395.262 270.405 396.122C271.832 396.971 272.895 398.09 273.593 399.476L270.426 401.663C270.145 401.054 269.806 400.549 269.405 400.143C268.999 399.726 268.572 399.403 268.114 399.163C267.655 398.929 267.176 398.757 266.676 398.643C266.176 398.533 265.687 398.476 265.218 398.476C264.176 398.476 263.265 398.695 262.489 399.122C261.723 399.538 261.082 400.08 260.572 400.747C260.056 401.413 259.666 402.174 259.405 403.018C259.155 403.867 259.03 404.715 259.03 405.559C259.03 406.492 259.176 407.393 259.468 408.268C259.77 409.143 260.197 409.913 260.739 410.58C261.291 411.236 261.952 411.762 262.718 412.163C263.494 412.554 264.343 412.747 265.259 412.747C265.744 412.747 266.244 412.695 266.759 412.58C267.285 412.455 267.78 412.262 268.239 411.997C268.707 411.736 269.145 411.403 269.551 410.997C269.952 410.58 270.27 410.09 270.509 409.518L273.905 411.455C273.556 412.262 273.072 412.971 272.447 413.58C271.822 414.195 271.114 414.705 270.322 415.122C269.53 415.538 268.681 415.861 267.78 416.08C266.89 416.299 266.015 416.413 265.155 416.413C263.624 416.413 262.228 416.096 260.968 415.455C259.718 414.82 258.634 413.986 257.718 412.955C256.812 411.913 256.103 410.742 255.593 409.434C255.093 408.132 254.843 406.799 254.843 405.434Z" fill="#D8B10A"/>
<path d="M295.069 416.372C293.496 416.372 292.079 416.07 290.819 415.455C289.553 414.846 288.465 414.039 287.548 413.039C286.642 412.028 285.944 410.872 285.444 409.58C284.944 408.278 284.694 406.945 284.694 405.58C284.694 404.164 284.954 402.809 285.486 401.518C286.012 400.216 286.741 399.059 287.673 398.059C288.6 397.059 289.704 396.268 290.986 395.684C292.262 395.091 293.652 394.789 295.152 394.789C296.694 394.789 298.095 395.111 299.361 395.747C300.621 396.372 301.704 397.2 302.611 398.226C303.512 399.242 304.215 400.403 304.715 401.705C305.215 402.997 305.465 404.309 305.465 405.643C305.465 407.059 305.199 408.414 304.673 409.705C304.157 410.997 303.444 412.138 302.527 413.122C301.611 414.111 300.506 414.903 299.215 415.497C297.933 416.08 296.553 416.372 295.069 416.372ZM288.881 405.58C288.881 406.497 289.017 407.388 289.298 408.247C289.574 409.111 289.975 409.872 290.506 410.539C291.048 411.195 291.699 411.721 292.465 412.122C293.225 412.528 294.1 412.726 295.09 412.726C296.09 412.726 296.97 412.528 297.736 412.122C298.512 411.705 299.163 411.158 299.694 410.476C300.22 409.799 300.616 409.033 300.881 408.184C301.157 407.325 301.298 406.455 301.298 405.58C301.298 404.664 301.152 403.778 300.861 402.914C300.569 402.054 300.157 401.299 299.631 400.643C299.1 399.976 298.449 399.45 297.673 399.059C296.907 398.674 296.048 398.476 295.09 398.476C294.09 398.476 293.199 398.684 292.423 399.101C291.642 399.507 290.991 400.049 290.465 400.726C289.949 401.393 289.553 402.153 289.277 402.997C289.012 403.846 288.881 404.705 288.881 405.58Z" fill="#D8B10A"/>
<path fill-rule="evenodd" clip-rule="evenodd" d="M251.307 154.469C247.495 139.849 236.141 136.599 236.141 124.578C236.141 112.568 247.745 97.0053 251.307 86.6667C254.865 97.0053 266.469 112.568 266.469 124.578C266.469 136.599 255.026 140.177 251.307 154.469Z" fill="#D8B10A"/>
<path fill-rule="evenodd" clip-rule="evenodd" d="M203.558 143.771C202.578 147.651 204.474 151.802 208.703 154.078C214.177 157.026 221.485 155.714 225.021 151.151C226.297 149.495 226.906 147.635 226.906 145.802C236.802 151.854 239.407 161.823 238.839 169.464C238.042 180.276 230.964 190.818 223.302 198.297C236.104 192.719 245.005 181.063 247.162 168.292C249.12 156.661 245.177 142.604 230.172 136.208C223.448 133.339 208.917 132.302 204.313 141.833C203.979 142.464 203.729 143.109 203.563 143.766L203.558 143.771Z" fill="#D8B10A"/>
<path fill-rule="evenodd" clip-rule="evenodd" d="M299.052 143.771C300.031 147.651 298.135 151.802 293.906 154.078C288.432 157.026 281.125 155.714 277.594 151.151C276.312 149.495 275.703 147.635 275.708 145.802C265.807 151.854 263.208 161.823 263.771 169.464C264.567 180.276 271.651 190.818 279.312 198.297C266.505 192.719 257.604 181.063 255.448 168.292C253.489 156.661 257.437 142.604 272.437 136.208C279.166 133.339 293.687 132.302 298.297 141.833C298.635 142.464 298.88 143.109 299.052 143.766V143.771Z" fill="#D8B10A"/>
<path fill-rule="evenodd" clip-rule="evenodd" d="M251.307 173.755C248.667 179.891 243.219 183.755 243.219 188.943C243.219 194.141 249.406 200.865 251.307 205.333C253.203 200.865 259.391 194.141 259.391 188.943C259.391 183.755 253.943 179.891 251.307 173.755Z" fill="#D8B10A"/>
<path fill-rule="evenodd" clip-rule="evenodd" d="M231.297 176.307H271.318V164.74H231.297V176.307Z" fill="#D8B10A"/>
</svg>
